<?xml version="1.0" encoding="UTF-8"?>
<svg version="1.1" xmlns="http://www.w3.org/2000/svg" width="512" height="512">
<path d="M0 0 C84.48 0 168.96 0 256 0 C256 7.26 256 14.52 256 22 C224.32 22.33 192.64 22.66 160 23 C162.97 25.97 165.94 28.94 169 32 C181.87989632 47.62568067 189.75941076 64.8346968 192 85 C213.12 85 234.24 85 256 85 C256 92.26 256 99.52 256 107 C234.88 107 213.76 107 192 107 C191.34 111.62 190.68 116.24 190 121 C185.84423382 135.52588241 178.84286328 148.55525897 169 160 C168.22785156 160.97324219 167.45570313 161.94648438 166.66015625 162.94921875 C163.95013437 166.1972294 160.89890875 168.79030572 157.5625 171.375 C156.95269287 171.84760254 156.34288574 172.32020508 155.71459961 172.80712891 C131.14756158 191.44288744 104.7474925 193.42503158 74.9375 193.6875 C72.31704094 193.72074015 69.69659749 193.75523576 67.07617188 193.79101562 C60.71755528 193.87514272 54.35892165 193.94380575 48 194 C48.91688599 195.01755371 48.91688599 195.01755371 49.85229492 196.05566406 C50.65771729 196.94995117 51.46313965 197.84423828 52.29296875 198.765625 C53.48829224 200.09255371 53.48829224 200.09255371 54.70776367 201.44628906 C58.77202373 205.97415786 62.77227818 210.55332749 66.71484375 215.1875 C72.53879498 222.02721235 78.45905144 228.74521015 84.5546875 235.34375 C88.71504527 239.86298847 92.72685535 244.50178609 96.70703125 249.1796875 C102.5344906 256.02119707 108.45656731 262.74252108 114.5546875 269.34375 C118.71504527 273.86298847 122.72685535 278.50178609 126.70703125 283.1796875 C132.5344906 290.02119707 138.45656731 296.74252108 144.5546875 303.34375 C148.71504527 307.86298847 152.72685535 312.50178609 156.70703125 317.1796875 C162.52669575 324.01204582 168.43929909 330.72579025 174.53125 337.31640625 C177.21321416 340.23176919 179.84220627 343.18479784 182.42578125 346.1875 C183.52739195 347.45585574 184.6519361 348.70448869 185.79296875 349.9375 C186.35628906 350.55625 186.91960937 351.175 187.5 351.8125 C188.0053125 352.35519531 188.510625 352.89789063 189.03125 353.45703125 C189.3509375 353.96621094 189.670625 354.47539062 190 355 C188.70602116 358.88193651 186.82046071 359.98388921 183.625 362.5 C179.8027694 365.45139942 179.8027694 365.45139942 176.3984375 368.84375 C175 370 175 370 173.11328125 370.00390625 C170.07525246 368.56070219 168.39378053 366.46343062 166.1875 363.9375 C165.74519043 363.43581299 165.30288086 362.93412598 164.84716797 362.41723633 C163.55733198 360.95134312 162.27841639 359.47586291 161 358 C160.41089844 357.33484375 159.82179688 356.6696875 159.21484375 355.984375 C156.53754135 352.95843126 153.90713892 349.89358941 151.2890625 346.81640625 C145.4633567 339.97579566 139.54219064 333.25613441 133.4453125 326.65625 C129.29611335 322.14913272 125.29299196 317.52480269 121.328125 312.85546875 C116.26349915 306.90077252 111.15289094 301.02237347 105.8125 295.3125 C102.24670888 291.50000456 98.82899214 287.63965442 95.5625 283.5625 C90.97687705 277.84926485 86.00254458 272.54798063 80.99609375 267.20703125 C76.61883286 262.5360668 72.4485711 257.70252459 68.30078125 252.828125 C62.46981787 245.98481521 56.54591666 239.26016783 50.4453125 232.65625 C46.28495473 228.13701153 42.27314465 223.49821391 38.29296875 218.8203125 C32.4655094 211.97880293 26.54343269 205.25747892 20.4453125 198.65625 C17.22783538 195.16122693 14.09948424 191.59960022 11 188 C10.29278809 187.18233154 10.29278809 187.18233154 9.57128906 186.34814453 C7.94125189 184.46307092 6.31402381 182.57560561 4.6875 180.6875 C4.15906494 180.07600098 3.63062988 179.46450195 3.08618164 178.83447266 C2.58723389 178.25358887 2.08828613 177.67270508 1.57421875 177.07421875 C1.12651123 176.55432373 0.67880371 176.03442871 0.2175293 175.4987793 C-0.9449331 174.06778739 -1.97732528 172.53401208 -3 171 C-1.78272217 170.99191315 -0.56544434 170.98382629 0.6887207 170.97549438 C12.22128314 170.89764455 23.7537332 170.80981098 35.28614807 170.71247292 C41.21352854 170.66275708 47.14089329 170.616427 53.06835938 170.578125 C58.80024789 170.54095736 64.53199632 170.49451679 70.26376343 170.44193649 C72.43872595 170.42355828 74.6137183 170.40839086 76.78872681 170.39665604 C105.41588589 170.23683171 128.92967559 166.97950405 150 146 C150.6703125 145.36449219 151.340625 144.72898438 152.03125 144.07421875 C155.97925543 140.02751318 158.60220054 135.41856609 161.1875 130.4375 C161.50879883 129.83139893 161.83009766 129.22529785 162.16113281 128.60083008 C165.65090294 121.51573059 166.86669571 114.99989109 169 107 C113.23 107 57.46 107 0 107 C0 99.74 0 92.48 0 85 C55.77 85 111.54 85 169 85 C162.49284729 62.87568078 153.86690513 44.35826381 133.12890625 32.76953125 C120.03017975 25.80810129 107.53443751 22.88539584 92.75024414 22.79467773 C91.24178421 22.77982834 91.24178421 22.77982834 89.70285034 22.76467896 C86.39697581 22.73322957 83.09108694 22.7083723 79.78515625 22.68359375 C77.48587177 22.66300991 75.18659095 22.64201307 72.88731384 22.62062073 C66.8490598 22.56554776 60.81077245 22.51607354 54.77246094 22.46777344 C48.60543875 22.41745028 42.43846467 22.36182076 36.27148438 22.30664062 C24.18102923 22.19923985 12.09053301 22.09824565 0 22 C0 14.74 0 7.48 0 0 Z " fill="#A4A4A4" transform="translate(128,85)"/>
</svg>
